{"glyphs":{" ":{"ha":694,"x_min":0,"x_max":0,"o":""},"A":{"ha":1736,"x_min":0,"x_max":1389,"o":"m 0 0 q 102 244 0 142 q 347 347 203 347 q 449 102 347 203 q 694 0 551 0 l 347 0 l 347 174 q 296 50 347 102 q 174 0 244 0 l 0 0 m 694 0 q 796 244 694 142 q 1042 347 898 347 q 1143 102 1042 203 q 1389 0 1245 0 l 1042 0 l 1042 174 q 990 50 1042 102 q 868 0 939 0 l 694 0 m 521 486 q 495 495 506 486 q 486 521 486 506 q 495 545 486 534 q 521 555 506 555 q 545 545 534 555 q 555 521 555 534 q 545 495 555 506 q 521 486 534 486 l 521 486 m 868 486 q 842 495 853 486 q 833 521 833 506 q 842 545 833 534 q 868 555 853 555 q 892 545 882 555 q 902 521 902 534 q 892 495 902 506 q 868 486 882 486 l 868 486 m 0 347 q 102 591 0 490 q 347 694 203 694 l 347 521 q 296 397 347 449 q 174 347 244 347 l 0 347 m 1389 347 q 1143 449 1245 347 q 1042 694 1042 551 q 1286 591 1184 694 q 1389 347 1389 490 l 1389 347 m 174 694 q 296 745 244 694 q 347 868 347 796 q 397 990 347 939 q 521 1042 449 1042 l 694 1042 q 591 796 694 898 q 347 694 490 694 l 174 694 m 1042 694 l 694 1042 l 1042 1042 l 1042 694 l 1042 694 m 1042 694 q 1143 939 1042 837 q 1389 1042 1245 1042 q 1286 796 1389 898 q 1042 694 1184 694 l 1042 694 z "},"B":{"ha":1736,"x_min":0,"x_max":1389,"o":"m 521 381 q 618 422 578 381 q 659 521 659 463 q 618 618 659 578 q 521 659 578 659 q 422 618 463 659 q 381 521 381 578 q 422 422 381 463 q 521 381 463 381 l 521 381 m 868 381 q 966 422 925 381 q 1006 521 1006 463 q 966 618 1006 578 q 868 659 925 659 q 769 618 810 659 q 728 521 728 578 q 769 422 728 463 q 868 381 810 381 l 868 381 m 347 0 l 0 347 q 102 591 0 490 q 347 694 203 694 l 347 521 q 296 397 347 449 q 174 347 244 347 l 347 347 q 449 102 347 203 q 694 0 551 0 l 347 0 m 521 347 q 397 397 449 347 q 347 521 347 449 q 397 643 347 591 q 521 694 449 694 q 643 643 591 694 q 694 521 694 591 q 643 397 694 449 q 521 347 591 347 l 521 347 m 868 347 q 745 397 796 347 q 694 521 694 449 q 745 643 694 591 q 868 694 796 694 q 990 643 939 694 q 1042 521 1042 591 q 990 397 1042 449 q 868 347 939 347 l 868 347 m 694 0 q 796 244 694 142 q 1042 347 898 347 l 1042 694 q 1143 449 1042 551 q 1389 347 1245 347 l 1042 0 l 1042 174 q 990 50 1042 102 q 868 0 939 0 l 694 0 m 347 694 q 449 939 347 837 q 694 1042 551 1042 q 939 939 837 1042 q 1042 694 1042 837 l 868 694 q 745 745 796 694 q 694 868 694 796 q 643 745 694 796 q 521 694 591 694 l 347 694 z "},"C":{"ha":1736,"x_min":0,"x_max":1389,"o":"m 347 0 l 347 347 q 449 102 347 203 q 694 0 551 0 l 347 0 m 694 0 q 796 244 694 142 q 1042 347 898 347 l 1042 174 q 990 50 1042 102 q 868 0 939 0 l 694 0 m 868 450 q 818 471 838 450 q 798 521 798 491 q 818 570 798 549 q 868 590 838 590 q 917 570 897 590 q 937 521 937 549 q 917 471 937 491 q 868 450 897 450 l 868 450 m 521 381 q 422 422 463 381 q 381 521 381 463 q 422 618 381 578 q 521 659 463 659 q 618 618 578 659 q 659 521 659 578 q 618 422 659 463 q 521 381 578 381 l 521 381 m 174 694 q 50 745 102 694 q 0 868 0 796 q 50 990 0 939 q 174 1042 102 1042 q 296 990 244 1042 q 347 868 347 939 q 397 990 347 939 q 521 1042 449 1042 l 868 1042 q 990 990 939 1042 q 1042 868 1042 939 q 1092 990 1042 939 q 1215 1042 1143 1042 q 1337 990 1286 1042 q 1389 868 1389 939 q 1337 745 1389 796 q 1215 694 1286 694 l 868 694 q 745 745 796 694 q 694 868 694 796 q 643 745 694 796 q 521 694 591 694 l 174 694 z "},"D":{"ha":1736,"x_min":174,"x_max":1389,"o":"m 694 0 q 796 244 694 142 q 1042 347 898 347 l 1042 174 q 990 50 1042 102 q 868 0 939 0 l 694 0 m 347 0 l 347 174 q 296 296 347 244 q 174 347 244 347 q 296 397 244 347 q 347 521 347 449 l 347 347 q 449 102 347 203 q 694 0 551 0 l 347 0 m 347 521 q 347 521 347 521 l 347 521 m 521 381 q 618 422 578 381 q 659 521 659 463 q 618 618 659 578 q 521 659 578 659 q 422 618 463 659 q 381 521 381 578 q 422 422 381 463 q 521 381 463 381 l 521 381 m 868 381 q 966 422 925 381 q 1006 521 1006 463 q 966 618 1006 578 q 868 659 925 659 q 769 618 810 659 q 728 521 728 578 q 769 422 728 463 q 868 381 810 381 l 868 381 m 868 347 q 745 397 796 347 q 694 521 694 449 q 745 643 694 591 q 868 694 796 694 q 990 643 939 694 q 1042 521 1042 591 q 990 397 1042 449 q 868 347 939 347 l 868 347 m 1389 694 q 1143 796 1245 694 q 1042 1042 1042 898 q 1286 939 1184 1042 q 1389 694 1389 837 l 1389 694 m 521 347 q 397 397 449 347 q 347 521 347 449 q 397 643 347 591 q 509 693 444 689 l 347 693 l 347 867 q 397 990 347 939 q 521 1042 449 1042 l 1042 1042 q 796 1143 898 1042 q 694 1389 694 1245 q 939 1286 837 1389 q 1042 1042 1042 1184 l 1042 868 q 990 745 1042 796 q 868 694 939 694 l 694 694 l 694 693 l 532 693 q 643 643 597 689 q 694 521 694 591 q 643 397 694 449 q 521 347 591 347 l 521 347 z "},"E":{"ha":1736,"x_min":0,"x_max":1389,"o":"m 347 0 l 347 347 q 449 102 347 203 q 694 0 551 0 l 347 0 m 694 0 q 796 244 694 142 q 1042 347 898 347 l 1042 174 q 990 50 1042 102 q 868 0 939 0 l 694 0 m 521 486 q 495 495 506 486 q 486 521 486 506 q 495 545 486 534 q 521 555 506 555 q 545 545 534 555 q 555 521 555 534 q 545 495 555 506 q 521 486 534 486 l 521 486 m 868 486 q 842 495 853 486 q 833 521 833 506 q 842 545 833 534 q 868 555 853 555 q 892 545 882 555 q 902 521 902 534 q 892 495 902 506 q 868 486 882 486 l 868 486 m 0 694 l 0 868 q 50 990 0 939 q 174 1042 102 1042 l 347 1042 q 244 796 347 898 q 0 694 142 694 l 0 694 m 347 693 l 347 867 q 397 990 347 939 q 521 1042 449 1042 l 694 1042 l 694 693 l 347 693 m 1042 694 q 796 796 898 694 q 694 1042 694 898 l 868 1042 q 990 990 939 1042 q 1042 868 1042 939 l 1042 694 l 1042 694 m 1389 694 q 1143 796 1245 694 q 1042 1042 1042 898 l 1215 1042 q 1337 990 1286 1042 q 1389 868 1389 939 l 1389 694 l 1389 694 z "},"F":{"ha":1736,"x_min":0,"x_max":1389,"o":"m 521 486 q 495 495 506 486 q 486 521 486 506 q 495 545 486 534 q 521 555 506 555 q 545 545 534 555 q 555 521 555 534 q 545 495 555 506 q 521 486 534 486 l 521 486 m 868 486 q 842 495 853 486 q 833 521 833 506 q 842 545 833 534 q 868 555 853 555 q 892 545 882 555 q 902 521 902 534 q 892 495 902 506 q 868 486 882 486 l 868 486 m 347 0 q 102 102 202 0 q 0 346 0 202 l 0 519 q 50 643 0 591 q 174 694 102 694 l 347 694 l 347 347 q 449 102 347 203 q 694 0 551 0 l 347 0 m 694 0 q 796 244 694 142 q 1042 347 898 347 l 1042 694 l 1215 694 q 1337 643 1286 694 q 1389 521 1389 591 l 1389 347 q 1286 102 1389 202 q 1042 0 1184 0 l 1042 174 q 990 50 1042 102 q 868 0 939 0 l 694 0 m 347 694 l 347 868 q 397 990 347 939 q 521 1042 449 1042 l 694 1042 q 591 796 694 898 q 347 694 490 694 l 347 694 m 1042 694 q 796 796 898 694 q 694 1042 694 898 l 868 1042 q 990 990 939 1042 q 1042 868 1042 939 l 1042 694 l 1042 694 z "},"G":{"ha":1736,"x_min":0,"x_max":1389,"o":"m 521 416 q 594 446 563 416 q 624 521 624 477 q 594 594 624 563 q 521 624 563 624 q 446 594 477 624 q 416 521 416 563 q 446 446 416 477 q 521 416 477 416 l 521 416 m 868 416 q 941 446 910 416 q 971 521 971 477 q 941 594 971 563 q 868 624 910 624 q 793 594 825 624 q 764 521 764 563 q 793 446 764 477 q 868 416 825 416 l 868 416 m 347 0 l 0 347 q 102 591 0 490 q 347 694 203 694 l 347 521 q 296 397 347 449 q 174 347 244 347 l 347 347 q 449 102 347 203 q 694 0 551 0 l 347 0 m 521 347 q 397 397 449 347 q 347 521 347 449 q 397 643 347 591 q 521 694 449 694 q 643 643 591 694 q 694 521 694 591 q 643 397 694 449 q 521 347 591 347 l 521 347 m 868 347 q 745 397 796 347 q 694 521 694 449 q 745 643 694 591 q 868 694 796 694 q 990 643 939 694 q 1042 521 1042 591 q 990 397 1042 449 q 868 347 939 347 l 868 347 m 694 0 q 796 244 694 142 q 1042 347 898 347 l 1042 694 q 1143 449 1042 551 q 1389 347 1245 347 l 1042 0 l 1042 174 q 990 50 1042 102 q 868 0 939 0 l 694 0 m 347 694 l 347 868 q 397 990 347 939 q 521 1042 449 1042 l 694 1042 q 591 796 694 898 q 347 694 490 694 l 347 694 m 1042 694 q 796 796 898 694 q 694 1042 694 898 l 868 1042 q 990 990 939 1042 q 1042 868 1042 939 l 1042 694 l 1042 694 z "},"H":{"ha":1736,"x_min":0,"x_max":1389,"o":"m 521 450 q 471 471 491 450 q 450 521 450 491 q 471 570 450 549 q 521 590 491 590 q 570 570 549 590 q 590 521 590 549 q 570 471 590 491 q 521 450 549 450 l 521 450 m 868 450 q 818 471 838 450 q 798 521 798 491 q 818 570 798 549 q 868 590 838 590 q 917 570 897 590 q 937 521 937 549 q 917 471 937 491 q 868 450 897 450 l 868 450 m 347 0 q 102 102 202 0 q 0 347 0 203 l 347 694 l 347 347 q 449 102 347 203 q 694 0 551 0 l 347 0 m 694 0 q 796 244 694 142 q 1042 347 898 347 q 1143 591 1042 490 q 1389 694 1245 694 l 1389 521 q 1337 397 1389 449 q 1215 347 1286 347 l 1389 347 l 1389 174 q 1337 50 1389 102 q 1215 0 1286 0 l 1042 0 l 1042 174 q 990 50 1042 102 q 868 0 939 0 l 694 0 m 694 694 q 449 796 551 694 q 347 1042 347 898 l 521 1042 q 643 990 591 1042 q 694 868 694 939 l 694 694 l 694 694 m 1042 694 q 796 796 898 694 q 694 1042 694 898 l 868 1042 q 990 990 939 1042 q 1042 868 1042 939 l 1042 694 l 1042 694 z "},"I":{"ha":1736,"x_min":0,"x_max":1389,"o":"m 0 0 q 102 244 0 142 q 347 347 203 347 q 449 102 347 203 q 694 0 551 0 l 347 0 l 347 174 q 296 50 347 102 q 174 0 244 0 l 0 0 m 694 0 q 796 244 694 142 q 1042 347 898 347 l 1042 174 q 990 50 1042 102 q 868 0 939 0 l 694 0 m 868 486 q 842 495 853 486 q 833 521 833 506 q 842 545 833 534 q 868 555 853 555 q 892 545 882 555 q 902 521 902 534 q 892 495 902 506 q 868 486 882 486 l 868 486 m 0 347 q 102 591 0 490 q 347 694 203 694 l 347 867 q 397 990 347 939 q 521 1042 449 1042 l 1042 1042 l 694 694 l 694 693 l 693 693 l 347 347 l 347 521 q 296 397 347 449 q 174 347 244 347 l 0 347 m 1389 694 q 1143 796 1245 694 q 1042 1042 1042 898 l 1215 1042 q 1337 990 1286 1042 q 1389 868 1389 939 l 1389 694 l 1389 694 m 1042 1042 l 1042 1215 q 1092 1337 1042 1286 q 1215 1389 1143 1389 l 1389 1389 q 1286 1143 1389 1245 q 1042 1042 1184 1042 l 1042 1042 z "},"J":{"ha":1736,"x_min":347,"x_max":1389,"o":"m 694 0 q 449 102 549 0 q 347 347 347 203 l 1042 347 q 939 102 1042 202 q 694 0 837 0 l 694 0 m 521 486 q 495 495 506 486 q 486 521 486 506 q 495 545 486 534 q 521 555 506 555 q 545 545 534 555 q 555 521 555 534 q 545 495 555 506 q 521 486 534 486 l 521 486 m 868 486 q 892 495 882 486 q 902 521 902 506 q 892 545 902 534 q 868 555 882 555 q 842 545 853 555 q 833 521 833 534 q 842 495 833 506 q 868 486 853 486 l 868 486 m 868 347 q 745 397 796 347 q 694 521 694 449 q 745 643 694 591 q 868 694 796 694 q 990 643 939 694 q 1042 521 1042 591 q 990 397 1042 449 q 868 347 939 347 l 868 347 m 1389 347 q 1143 449 1245 347 q 1042 694 1042 551 q 1286 591 1184 694 q 1389 347 1389 490 l 1389 347 m 347 694 q 449 939 347 837 q 694 1042 551 1042 q 939 939 838 1042 q 1042 694 1042 837 l 694 694 l 694 868 q 643 745 694 796 q 521 694 591 694 l 347 694 m 1042 694 q 1143 939 1042 837 q 1389 1042 1245 1042 q 1286 796 1389 898 q 1042 694 1184 694 l 1042 694 z "},"K":{"ha":1389,"x_min":347,"x_max":1042,"o":"m 694 0 q 449 102 549 0 q 347 347 347 203 l 1042 347 q 939 102 1042 202 q 694 0 837 0 l 694 0 m 521 486 q 495 495 506 486 q 486 521 486 506 q 495 545 486 534 q 521 555 506 555 q 545 545 534 555 q 555 521 555 534 q 545 495 555 506 q 521 486 534 486 l 521 486 m 868 486 q 842 495 853 486 q 833 521 833 506 q 842 545 833 534 q 868 555 853 555 q 892 545 882 555 q 902 521 902 534 q 892 495 902 506 q 868 486 882 486 l 868 486 m 347 694 q 449 939 347 837 q 694 1042 551 1042 q 939 939 838 1042 q 1042 694 1042 837 l 694 694 l 694 868 q 643 745 694 796 q 521 694 591 694 l 347 694 z "},"L":{"ha":1736,"x_min":0,"x_max":1389,"o":"m 521 450 q 471 471 491 450 q 450 521 450 491 q 471 570 450 549 q 521 590 491 590 q 570 570 549 590 q 590 521 590 549 q 570 471 590 491 q 521 450 549 450 l 521 450 m 868 450 q 818 471 838 450 q 798 521 798 491 q 818 570 798 549 q 868 590 838 590 q 917 570 897 590 q 937 521 937 549 q 917 471 937 491 q 868 450 897 450 l 868 450 m 347 0 l 0 347 q 102 591 0 490 q 347 694 203 694 l 347 521 q 296 397 347 449 q 174 347 244 347 l 347 347 q 449 102 347 203 q 694 0 551 0 l 347 0 m 694 0 q 796 244 694 142 q 1042 347 898 347 l 1042 694 q 1143 449 1042 551 q 1389 347 1245 347 l 1042 0 l 1042 174 q 990 50 1042 102 q 868 0 939 0 l 694 0 m 347 694 q 449 939 347 837 q 694 1042 551 1042 q 939 939 837 1042 q 1042 694 1042 837 l 868 694 q 745 745 796 694 q 694 868 694 796 q 643 745 694 796 q 521 694 591 694 l 347 694 z "},"M":{"ha":1736,"x_min":0,"x_max":1389,"o":"m 521 450 q 471 471 491 450 q 450 521 450 491 q 471 570 450 549 q 521 590 491 590 q 570 570 549 590 q 590 521 590 549 q 570 471 590 491 q 521 450 549 450 l 521 450 m 868 381 q 966 422 925 381 q 1006 521 1006 463 q 966 618 1006 578 q 868 659 925 659 q 769 618 810 659 q 728 521 728 578 q 769 422 728 463 q 868 381 810 381 l 868 381 m 347 0 l 0 347 q 102 591 0 490 q 347 694 203 694 l 347 521 q 296 397 347 449 q 174 347 244 347 l 347 347 q 449 102 347 203 q 694 0 551 0 l 347 0 m 868 347 q 745 397 796 347 q 694 521 694 449 q 745 643 694 591 q 868 694 796 694 q 990 643 939 694 q 1042 521 1042 591 q 990 397 1042 449 q 868 347 939 347 l 868 347 m 694 0 q 796 244 694 142 q 1042 347 898 347 l 1042 694 q 1143 449 1042 551 q 1389 347 1245 347 l 1042 0 l 1042 174 q 990 50 1042 102 q 868 0 939 0 l 694 0 m 347 694 q 449 939 347 837 q 694 1042 551 1042 q 939 939 837 1042 q 1042 694 1042 837 l 868 694 q 745 745 796 694 q 694 868 694 796 q 643 745 694 796 q 521 694 591 694 l 347 694 z "},"N":{"ha":1736,"x_min":0,"x_max":1389,"o":"m 521 486 q 545 495 534 486 q 555 521 555 506 q 545 545 555 534 q 521 555 534 555 q 495 545 506 555 q 486 521 486 534 q 495 495 486 506 q 521 486 506 486 l 521 486 m 868 381 q 966 422 925 381 q 1006 521 1006 463 q 966 618 1006 578 q 868 659 925 659 q 769 618 810 659 q 728 521 728 578 q 769 422 728 463 q 868 381 810 381 l 868 381 m 347 0 l 0 347 q 102 591 0 490 q 347 694 203 694 l 347 521 q 296 397 347 449 q 174 347 244 347 l 347 347 q 449 102 347 203 q 694 0 551 0 l 347 0 m 521 347 q 397 397 449 347 q 347 521 347 449 q 397 643 347 591 q 521 694 449 694 q 643 643 591 694 q 694 521 694 591 q 643 397 694 449 q 521 347 591 347 l 521 347 m 868 347 q 745 397 796 347 q 694 521 694 449 q 745 643 694 591 q 868 694 796 694 q 990 643 939 694 q 1042 521 1042 591 q 990 397 1042 449 q 868 347 939 347 l 868 347 m 694 0 q 796 244 694 142 q 1042 347 898 347 l 1042 694 q 1143 449 1042 551 q 1389 347 1245 347 l 1042 0 l 1042 174 q 990 50 1042 102 q 868 0 939 0 l 694 0 m 347 694 l 347 868 q 397 990 347 939 q 521 1042 449 1042 l 694 1042 q 591 796 694 898 q 347 694 490 694 l 347 694 m 1042 694 q 796 796 898 694 q 694 1042 694 898 l 868 1042 q 990 990 939 1042 q 1042 868 1042 939 l 1042 694 l 1042 694 z "},"O":{"ha":1736,"x_min":0,"x_max":1389,"o":"m 347 0 l 347 347 q 449 102 347 203 q 694 0 551 0 l 347 0 m 694 0 q 796 244 694 142 q 1042 347 898 347 l 1042 174 q 990 50 1042 102 q 868 0 939 0 l 694 0 m 521 450 q 471 471 491 450 q 450 521 450 491 q 471 570 450 549 q 521 590 491 590 q 570 570 549 590 q 590 521 590 549 q 570 471 590 491 q 521 450 549 450 l 521 450 m 868 450 q 818 471 838 450 q 798 521 798 491 q 818 570 798 549 q 868 590 838 590 q 917 570 897 590 q 937 521 937 549 q 917 471 937 491 q 868 450 897 450 l 868 450 m 347 347 q 102 449 202 347 q 0 693 0 549 l 0 867 q 50 990 0 939 q 174 1042 102 1042 l 347 1042 l 347 867 q 397 990 347 939 q 521 1042 449 1042 l 868 1042 q 990 990 939 1042 q 1042 868 1042 939 l 1042 1042 l 1215 1042 q 1337 990 1286 1042 q 1389 868 1389 939 l 1389 694 q 1286 449 1389 549 q 1042 347 1184 347 l 1042 694 l 694 694 l 694 693 l 347 693 l 347 347 l 347 347 z "},"P":{"ha":1736,"x_min":0,"x_max":1389,"o":"m 0 0 q 102 244 0 142 q 347 347 203 347 q 449 102 347 203 q 694 0 551 0 l 347 0 l 347 174 q 296 50 347 102 q 174 0 244 0 l 0 0 m 694 0 q 796 244 694 142 q 1042 347 898 347 q 1143 102 1042 203 q 1389 0 1245 0 l 1042 0 l 1042 174 q 990 50 1042 102 q 868 0 939 0 l 694 0 m 174 347 q 296 397 244 347 q 347 521 347 449 l 347 347 l 174 347 m 521 450 q 471 471 491 450 q 450 521 450 491 q 471 570 450 549 q 521 590 491 590 q 570 570 549 590 q 590 521 590 549 q 570 471 590 491 q 521 450 549 450 l 521 450 m 868 450 q 818 471 838 450 q 798 521 798 491 q 818 570 798 549 q 868 590 838 590 q 917 570 897 590 q 937 521 937 549 q 917 471 937 491 q 868 450 897 450 l 868 450 m 1389 347 q 1143 449 1245 347 q 1042 694 1042 551 q 1286 591 1184 694 q 1389 347 1389 490 l 1389 347 m 347 693 l 347 694 l 174 694 q 296 745 244 694 q 347 868 347 796 l 347 867 q 397 990 347 939 q 521 1042 449 1042 l 1042 1042 q 939 796 1042 897 q 694 694 837 694 l 694 693 l 347 693 m 1042 694 q 1143 939 1042 837 q 1389 1042 1245 1042 q 1286 796 1389 898 q 1042 694 1184 694 l 1042 694 z "},"Q":{"ha":1736,"x_min":0,"x_max":1389,"o":"m 347 0 l 347 347 q 449 102 347 203 q 694 0 551 0 l 347 0 m 694 0 q 796 244 694 142 q 1042 347 898 347 l 1042 174 q 990 50 1042 102 q 868 0 939 0 l 694 0 m 868 450 q 818 471 838 450 q 798 521 798 491 q 818 570 798 549 q 868 590 838 590 q 917 570 897 590 q 937 521 937 549 q 917 471 937 491 q 868 450 897 450 l 868 450 m 1215 416 q 1289 446 1257 416 q 1318 521 1318 477 q 1289 594 1318 563 q 1215 624 1257 624 q 1141 594 1172 624 q 1111 521 1111 563 q 1141 446 1111 477 q 1215 416 1172 416 l 1215 416 m 174 381 q 271 422 231 381 q 312 521 312 463 q 271 618 312 578 q 174 659 231 659 q 75 618 115 659 q 34 521 34 578 q 75 422 34 463 q 174 381 115 381 l 174 381 m 412 355 l 454 481 l 347 559 l 479 559 l 521 685 l 562 559 l 694 559 l 586 481 l 628 355 l 521 433 l 412 355 l 412 355 m 174 347 q 50 397 102 347 q 0 521 0 449 q 50 643 0 591 q 174 694 102 694 q 296 643 244 694 q 347 521 347 591 q 296 397 347 449 q 174 347 244 347 l 174 347 m 1215 347 q 1092 397 1143 347 q 1042 521 1042 449 q 1092 643 1042 591 q 1215 694 1143 694 q 1337 643 1286 694 q 1389 521 1389 591 q 1337 397 1389 449 q 1215 347 1286 347 l 1215 347 m 174 833 q 198 842 187 833 q 208 868 208 853 q 198 892 208 882 q 174 902 187 902 q 148 892 159 902 q 138 868 138 882 q 148 842 138 853 q 174 833 159 833 l 174 833 m 1215 728 q 1116 769 1157 728 q 1076 868 1076 810 q 1116 966 1076 925 q 1215 1006 1157 1006 q 1313 966 1272 1006 q 1354 868 1354 925 q 1313 769 1354 810 q 1215 728 1272 728 l 1215 728 m 174 694 q 50 745 102 694 q 0 868 0 796 q 50 990 0 939 q 174 1042 102 1042 q 296 990 244 1042 q 347 868 347 939 q 296 745 347 796 q 174 694 244 694 l 174 694 m 347 694 l 347 868 q 397 990 347 939 q 521 1042 449 1042 l 694 1042 l 694 868 q 643 745 694 796 q 521 694 591 694 l 347 694 m 694 694 l 694 868 q 745 990 694 939 q 868 1042 796 1042 l 1042 1042 l 1042 868 q 990 745 1042 796 q 868 694 939 694 l 694 694 m 174 1180 q 148 1190 159 1180 q 138 1215 138 1200 q 148 1240 138 1229 q 174 1249 159 1249 q 198 1240 187 1249 q 208 1215 208 1229 q 198 1190 208 1200 q 174 1180 187 1180 l 174 1180 m 868 1180 q 892 1190 882 1180 q 902 1215 902 1200 q 892 1240 902 1229 q 868 1249 882 1249 q 842 1240 853 1249 q 833 1215 833 1229 q 842 1190 833 1200 q 868 1180 853 1180 l 868 1180 m 1215 1180 q 1190 1190 1200 1180 q 1180 1215 1180 1200 q 1190 1240 1180 1229 q 1215 1249 1200 1249 q 1240 1240 1229 1249 q 1249 1215 1249 1229 q 1240 1190 1249 1200 q 1215 1180 1229 1180 l 1215 1180 m 521 1111 q 594 1141 563 1111 q 624 1215 624 1172 q 594 1289 624 1257 q 521 1318 563 1318 q 446 1289 477 1318 q 416 1215 416 1257 q 446 1141 416 1172 q 521 1111 477 1111 l 521 1111 m 521 1042 q 397 1092 449 1042 q 347 1215 347 1143 q 397 1337 347 1286 q 521 1389 449 1389 q 643 1337 591 1389 q 694 1215 694 1286 q 643 1092 694 1143 q 521 1042 591 1042 l 521 1042 m 868 1042 q 745 1092 796 1042 q 694 1215 694 1143 q 745 1337 694 1286 q 868 1389 796 1389 q 990 1337 939 1389 q 1042 1215 1042 1286 q 990 1092 1042 1143 q 868 1042 939 1042 l 868 1042 z "},"R":{"ha":1736,"x_min":0,"x_max":1389,"o":"m 0 0 q 102 244 0 142 q 347 347 203 347 q 449 102 347 203 q 694 0 551 0 l 347 0 l 347 174 q 296 50 347 102 q 174 0 244 0 l 0 0 m 694 0 q 796 244 694 142 q 1042 347 898 347 l 1389 347 q 1286 102 1389 202 q 1042 0 1184 0 l 1042 174 q 990 50 1042 102 q 868 0 939 0 l 694 0 m 521 450 q 471 471 491 450 q 450 521 450 491 q 471 570 450 549 q 521 590 491 590 q 570 570 549 590 q 590 521 590 549 q 570 471 590 491 q 521 450 549 450 l 521 450 m 868 450 q 818 471 838 450 q 798 521 798 491 q 818 570 798 549 q 868 590 838 590 q 917 570 897 590 q 937 521 937 549 q 917 471 937 491 q 868 450 897 450 l 868 450 m 1042 347 l 1042 1042 l 1215 1042 q 1337 990 1286 1042 q 1389 868 1389 939 l 1389 694 q 1286 449 1389 549 q 1042 347 1184 347 l 1042 347 m 347 347 q 102 449 202 347 q 0 693 0 549 l 0 867 q 50 990 0 939 q 174 1042 102 1042 l 347 1042 q 449 1286 347 1184 q 694 1389 551 1389 q 796 1143 694 1245 q 1042 1042 898 1042 l 694 694 l 694 1215 q 643 1092 694 1143 q 521 1042 591 1042 l 694 1042 l 347 694 l 347 347 l 347 347 z "},"S":{"ha":1736,"x_min":0,"x_max":1389,"o":"m 347 0 l 347 347 q 449 102 347 203 q 694 0 551 0 l 347 0 m 694 0 q 796 244 694 142 q 1042 347 898 347 l 1042 174 q 990 50 1042 102 q 868 0 939 0 l 694 0 m 624 416 l 624 624 l 416 624 l 416 416 l 624 416 m 971 416 l 971 624 l 764 624 l 764 416 l 971 416 m 347 347 q 102 449 202 347 q 0 693 0 549 l 0 867 q 50 990 0 939 q 174 1042 102 1042 l 347 1042 l 347 867 q 397 990 347 939 q 521 1042 449 1042 q 397 1092 449 1042 q 347 1215 347 1143 q 296 1337 347 1286 q 174 1389 244 1389 l 347 1389 q 591 1286 490 1389 q 694 1042 694 1184 l 868 1042 q 990 990 939 1042 q 1042 868 1042 939 l 1042 1042 l 1215 1042 q 1337 990 1286 1042 q 1389 868 1389 939 l 1389 694 q 1286 449 1389 549 q 1042 347 1184 347 l 347 347 z "},"|":{"ha":1736,"x_min":0,"x_max":1389,"o":"m 0 0 q 102 244 0 142 q 347 347 203 347 q 449 102 347 203 q 694 0 551 0 l 347 0 l 347 174 q 296 50 347 102 q 174 0 244 0 l 0 0 m 694 0 q 796 244 694 142 q 1042 347 898 347 q 1143 102 1042 203 q 1389 0 1245 0 l 1042 0 l 1042 174 q 990 50 1042 102 q 868 0 939 0 l 694 0 m 521 486 q 495 495 506 486 q 486 521 486 506 q 495 545 486 534 q 521 555 506 555 q 545 545 534 555 q 555 521 555 534 q 545 495 555 506 q 521 486 534 486 l 521 486 m 868 486 q 842 495 853 486 q 833 521 833 506 q 842 545 833 534 q 868 555 853 555 q 892 545 882 555 q 902 521 902 534 q 892 495 902 506 q 868 486 882 486 l 868 486 m 1042 347 l 1042 694 q 1143 449 1042 551 q 1389 347 1245 347 l 1042 347 m 0 347 q 102 591 0 490 q 347 694 203 694 l 174 694 q 296 745 244 694 q 347 868 347 796 l 347 867 q 397 990 347 939 q 521 1042 449 1042 l 694 1042 l 694 693 l 347 693 l 347 521 q 296 397 347 449 q 174 347 244 347 l 0 347 m 1042 694 l 694 1042 l 1042 1042 q 1143 796 1042 898 q 1389 694 1245 694 l 1042 694 z "},"}":{"ha":1736,"x_min":0,"x_max":1389,"o":"m 347 0 l 347 347 q 449 102 347 203 q 694 0 551 0 l 347 0 m 694 0 q 796 244 694 142 q 1042 347 898 347 l 1042 174 q 990 50 1042 102 q 868 0 939 0 l 694 0 m 521 486 q 495 495 506 486 q 486 521 486 506 q 495 545 486 534 q 521 555 506 555 q 545 545 534 555 q 555 521 555 534 q 545 495 555 506 q 521 486 534 486 l 521 486 m 868 486 q 842 495 853 486 q 833 521 833 506 q 842 545 833 534 q 868 555 853 555 q 892 545 882 555 q 902 521 902 534 q 892 495 902 506 q 868 486 882 486 l 868 486 m 174 381 q 271 422 231 381 q 312 521 312 463 q 271 618 312 578 q 174 659 231 659 q 75 618 115 659 q 34 521 34 578 q 75 422 34 463 q 174 381 115 381 l 174 381 m 1215 381 q 1313 422 1272 381 q 1354 521 1354 463 q 1313 618 1354 578 q 1215 659 1272 659 q 1116 618 1157 659 q 1076 521 1076 578 q 1116 422 1076 463 q 1215 381 1157 381 l 1215 381 m 174 347 q 50 397 102 347 q 0 521 0 449 q 50 643 0 591 q 174 694 102 694 q 296 643 244 694 q 347 521 347 591 q 296 397 347 449 q 174 347 244 347 l 174 347 m 1215 347 q 1092 397 1143 347 q 1042 521 1042 449 q 1092 643 1042 591 q 1215 694 1143 694 q 1337 643 1286 694 q 1389 521 1389 591 q 1337 397 1389 449 q 1215 347 1286 347 l 1215 347 m 174 833 q 198 842 187 833 q 208 868 208 853 q 198 892 208 882 q 174 902 187 902 q 148 892 159 902 q 138 868 138 882 q 148 842 138 853 q 174 833 159 833 l 174 833 m 1215 764 q 1289 793 1257 764 q 1318 868 1318 825 q 1289 941 1318 910 q 1215 971 1257 971 q 1141 941 1172 971 q 1111 868 1111 910 q 1141 793 1111 825 q 1215 764 1172 764 l 1215 764 m 174 694 q 50 745 102 694 q 0 868 0 796 q 50 990 0 939 q 174 1042 102 1042 q 296 990 244 1042 q 347 868 347 939 q 296 745 347 796 q 174 694 244 694 l 174 694 m 347 694 l 347 868 q 397 990 347 939 q 521 1042 449 1042 l 694 1042 q 591 796 694 898 q 347 694 490 694 l 347 694 m 1042 694 q 796 796 898 694 q 694 1042 694 898 l 868 1042 q 990 990 939 1042 q 1042 868 1042 939 l 1042 694 l 1042 694 m 1215 694 q 1092 745 1143 694 q 1042 868 1042 796 q 1092 990 1042 939 q 1215 1042 1143 1042 q 1337 990 1286 1042 q 1389 868 1389 939 q 1337 745 1389 796 q 1215 694 1286 694 l 1215 694 m 868 1180 q 892 1190 882 1180 q 902 1215 902 1200 q 892 1240 902 1229 q 868 1249 882 1249 q 842 1240 853 1249 q 833 1215 833 1229 q 842 1190 833 1200 q 868 1180 853 1180 l 868 1180 m 174 1145 q 123 1165 144 1145 q 103 1215 103 1185 q 123 1264 103 1244 q 174 1284 144 1284 q 222 1264 202 1284 q 243 1215 243 1244 q 222 1165 243 1185 q 174 1145 202 1145 l 174 1145 m 1215 1145 q 1165 1165 1185 1145 q 1145 1215 1145 1185 q 1165 1264 1145 1244 q 1215 1284 1185 1284 q 1264 1264 1244 1284 q 1284 1215 1284 1244 q 1264 1165 1284 1185 q 1215 1145 1244 1145 l 1215 1145 m 521 1076 q 618 1116 578 1076 q 659 1215 659 1157 q 618 1313 659 1272 q 521 1354 578 1354 q 422 1313 463 1354 q 381 1215 381 1272 q 422 1116 381 1157 q 521 1076 463 1076 l 521 1076 m 521 1042 q 397 1092 449 1042 q 347 1215 347 1143 q 397 1337 347 1286 q 521 1389 449 1389 q 643 1337 591 1389 q 694 1215 694 1286 q 643 1092 694 1143 q 521 1042 591 1042 l 521 1042 m 868 1042 q 745 1092 796 1042 q 694 1215 694 1143 q 745 1337 694 1286 q 868 1389 796 1389 q 990 1337 939 1389 q 1042 1215 1042 1286 q 990 1092 1042 1143 q 868 1042 939 1042 l 868 1042 z "}}}
